<?xml version="1.0" standalone="no"?>
<!DOCTYPE svg PUBLIC "-//W3C//DTD SVG 20010904//EN"
 "http://www.w3.org/TR/2001/REC-SVG-20010904/DTD/svg10.dtd">
<svg version="1.0" xmlns="http://www.w3.org/2000/svg"
 width="256.000000pt" height="256.000000pt" viewBox="0 0 256.000000 256.000000"
 preserveAspectRatio="xMidYMid meet">
<metadata>
Created by potrace 1.11, written by Peter Selinger 2001-2013
</metadata>
<g transform="translate(0.000000,256.000000) scale(0.100000,-0.100000)"
fill="#000000" stroke="none">
<path d="M1154 2294 c-43 -32 -110 -103 -133 -143 -7 -10 -17 -9 -51 10 -27
16 -44 20 -47 13 -2 -6 -9 -19 -16 -28 -12 -16 -16 -15 -58 9 -58 32 -190 66
-205 54 -21 -17 -47 -134 -48 -215 l-1 -81 -30 7 c-53 12 -149 2 -163 -18 -26
-33 -7 -153 43 -275 6 -15 4 -17 -16 -12 -25 5 -99 9 -136 7 -12 -1 -27 -11
-33 -22 -27 -50 66 -227 165 -319 26 -24 45 -44 43 -46 -2 -1 -37 -17 -78 -34
-92 -38 -232 -142 -284 -210 -39 -53 -65 -109 -66 -147 -1 -61 170 -200 283
-230 71 -19 205 -11 292 16 52 17 97 22 180 24 l111 1 2 -29 c3 -35 56 -166
89 -219 55 -88 136 -155 214 -177 27 -8 42 -5 93 20 113 55 176 135 224 282
17 51 33 104 36 118 5 25 6 25 118 26 62 0 124 5 138 11 18 8 44 4 110 -14
189 -52 327 -38 447 46 77 54 130 109 139 145 30 119 -192 330 -423 402 -46
14 -83 27 -83 30 0 3 11 20 24 37 36 49 75 131 82 175 5 33 3 42 -16 55 l-21
15 26 51 c36 73 57 163 52 223 -3 27 -8 52 -11 56 -11 11 -163 11 -202 0 -31
-8 -40 -7 -50 6 -6 9 -15 16 -20 16 -5 0 -10 31 -10 70 -1 38 -11 101 -23 140
l-21 69 -33 -5 c-53 -10 -130 -34 -157 -49 -23 -12 -27 -12 -45 11 l-20 25
-55 -35 -55 -35 -16 32 c-35 66 -170 177 -217 177 -11 0 -41 -16 -68 -36z"/>
</g>
</svg>
